<?xml version="1.0" encoding="utf-8"?>
<!-- Generator: Adobe Illustrator 28.0.0, SVG Export Plug-In . SVG Version: 6.00 Build 0)  -->
<svg version="1.1" id="Layer_1" xmlns="http://www.w3.org/2000/svg" xmlns:xlink="http://www.w3.org/1999/xlink" x="0px" y="0px"
	 viewBox="0 0 235.43 52.47" style="enable-background:new 0 0 235.43 52.47;" xml:space="preserve">
<g>
	<path d="M14.91,34.23c0,2.17,0.09,3.73,0.74,4.47c0.52,0.61,1.21,0.96,4.69,0.96c4.82,0,5.51-0.22,7.51-4.69
		c0.43-0.22,1.13-0.09,1.35,0.26c-0.35,1.82-1.3,5.12-1.82,6.29c-1.82-0.09-5.55-0.13-10.42-0.13h-4.51c-2.21,0-4.38,0.04-6.21,0.13
		c-0.35-0.17-0.48-1.04-0.09-1.26l1.3-0.22c2.04-0.35,2.43-0.39,2.43-4.9V19c0-4.51-0.39-4.64-2.43-4.95l-1.22-0.17
		c-0.3-0.22-0.3-1.08,0.09-1.26c2.17,0.09,4.12,0.13,6.12,0.13c1.91,0,3.86-0.04,5.77-0.13c0.39,0.17,0.43,1.04,0.09,1.26
		l-0.96,0.17c-2.04,0.35-2.43,0.43-2.43,4.95V34.23z"/>
	<path d="M44.98,35.88c-0.13,2.52,0.52,3.82,2.08,3.82c0.74,0,1.35-0.48,1.48-0.48c0.22,0,0.52,0.48,0.39,0.87
		C48.06,41.31,45.94,42,44.59,42c-1.08,0-2.3-0.3-3.12-1.21c-0.3-0.3-0.48-0.52-0.69-0.52c-0.22,0-0.52,0.22-1.17,0.61
		C38.78,41.39,37.47,42,35.91,42c-2.95,0-4.43-2.04-4.43-4.21c0-1.56,0.61-3,3.6-4.04c1.52-0.52,3.17-1.13,4.77-1.74
		c0.87-0.3,1-0.69,1-1.13l0.04-1.13c0.09-2.21-0.52-4.12-2.65-4.12c-1.21,0-2.13,0.65-2.3,1.91c-0.09,0.83-0.35,1.26-0.82,1.56
		c-0.61,0.39-1.82,0.78-2.78,0.78c-0.56,0-0.83-0.3-0.83-0.69c0-0.52,0.26-1.43,1.69-2.78c1.35-1.26,4.47-2.73,6.68-2.73
		c3.43,0,5.55,1.61,5.38,5.42L44.98,35.88z M40.73,34.41c0-0.48-0.13-0.74-0.35-0.74c-0.35,0-1.13,0.22-1.91,0.52
		c-1.21,0.43-2.34,1.04-2.34,2.91c0,1.13,0.78,2.52,2.43,2.52c1.56,0,2.04-1.04,2.08-2.08L40.73,34.41z"/>
	<path d="M76.96,12.75c2.78,0,5.21-0.04,6.12-0.13c0,0.96,0,4.21,0.09,6.25c-0.17,0.35-0.95,0.43-1.39,0.17
		c-0.43-2.52-1.13-3.78-2.78-4.21c-1.17-0.3-2.26-0.35-3.65-0.35h-2.21c-1.82,0-1.82,0.09-1.82,2.52v7.77
		c0,1.08,0.04,1.17,1.04,1.17h2.56c3.78,0,4.43-0.09,4.86-1.91l0.35-1.48c0.26-0.3,1.08-0.3,1.3,0.04
		c-0.04,1.13-0.13,2.73-0.13,4.34c0,1.61,0.09,3.17,0.13,4.51c-0.22,0.35-1.04,0.35-1.3,0.04l-0.35-1.69
		c-0.39-1.82-1.08-1.91-4.86-1.91h-2.56c-1,0-1.04,0.09-1.04,1.17v6.08c0,4.6,0.39,4.64,2.43,4.9l1.82,0.22
		c0.3,0.3,0.26,1.08-0.09,1.26c-2.78-0.09-4.73-0.13-6.64-0.13s-3.86,0.04-5.86,0.13c-0.35-0.17-0.39-0.95-0.09-1.26l0.96-0.13
		c2.04-0.26,2.43-0.39,2.43-4.99V19c0-4.6-0.39-4.73-2.43-5.03l-0.56-0.09c-0.3-0.3-0.26-1.08,0.09-1.26
		c1.52,0.09,3.47,0.13,5.38,0.13H76.96z"/>
	<path d="M105.35,32.63c0,6.16-4.34,9.37-9.5,9.37c-4.99,0-9.16-3.17-9.16-8.85c0-5.82,4.43-9.46,9.5-9.46
		C101.09,23.69,105.35,26.99,105.35,32.63z M96.36,40.27c2.99,0,3.86-3.56,3.86-6.9c0-3.65-1.26-7.94-4.47-7.94
		c-2.21,0-3.95,2.26-3.95,7.07C91.81,36.45,93.24,40.27,96.36,40.27z"/>
	<path d="M116.15,36.23c0,3.21,0.17,3.73,1.65,3.95l0.65,0.09c0.3,0.3,0.26,1.08-0.09,1.26c-1.52-0.09-2.99-0.13-4.6-0.13
		c-1.39,0-2.86,0.04-4.69,0.13c-0.35-0.17-0.39-0.95-0.09-1.26l0.96-0.13c1.48-0.22,1.65-0.69,1.65-3.91v-6.38
		c0-1.95,0-2.47-1.08-3.12l-0.52-0.3c-0.13-0.17-0.13-0.78,0.04-1c1.87-0.52,4.25-1.56,5.64-2.34c0.3,0,0.48,0.17,0.56,0.35
		c-0.09,0.82-0.09,1.65-0.09,2c0,0.3,0.13,0.39,0.39,0.43c2.04-1.13,3.25-2.17,5.95-2.17c3.52,0,5.16,2.43,5.16,5.82v6.73
		c0,3.21,0.17,3.73,1.65,3.91l1,0.13c0.3,0.3,0.26,1.08-0.09,1.26c-1.82-0.09-3.3-0.13-4.9-0.13c-1.43,0-2.91,0.04-4.43,0.13
		c-0.35-0.17-0.39-0.95-0.09-1.26l0.65-0.09c1.48-0.22,1.65-0.74,1.65-3.95v-5.99c0-2.21-0.87-3.95-3.47-3.95
		c-1.34,0-2.43,0.69-2.86,1.34c-0.56,0.78-0.61,1.17-0.61,2.78V36.23z"/>
	<path d="M151.08,34.32c0,3.95,0.3,5.29,1.04,5.29c0.48,0,1.17-0.13,1.82-0.39c0.35,0.26,0.43,1.3-0.04,1.56
		c-2.21,0.22-5.29,0.95-6.86,1.65c-0.22-0.04-0.43-0.22-0.52-0.48l0.09-0.65c0.09-0.65,0.04-1-0.04-1.21l-0.22-0.04
		c-1.3,0.96-2.91,1.95-4.99,1.95c-4.95,0-8.03-3.99-8.03-8.33c0-6.25,4.99-9.98,10.42-9.98c1.13,0,1.95,0.13,2.52,0.3
		c0.17-0.04,0.26-0.22,0.26-0.69v-5.69c0-2.91-0.09-3.17-1-3.78l-0.61-0.39c-0.26-0.17-0.3-0.87,0-1c1.69-0.48,3.95-1.39,5.69-2.08
		c0.26-0.04,0.52,0.13,0.61,0.35c-0.09,1.74-0.13,4.43-0.13,6.29V34.32z M146.53,28.98c0-0.87-0.13-1.48-0.56-2.08
		c-0.61-0.82-1.56-1.48-2.91-1.48c-2.95,0-4.82,2.91-4.82,6.55c0,4.47,2.34,7.42,5.42,7.42c1.04,0,2.21-0.56,2.56-0.96
		c0.22-0.22,0.3-0.61,0.3-1.21V28.98z"/>
	<path d="M170.22,35.88c-0.13,2.52,0.52,3.82,2.08,3.82c0.74,0,1.35-0.48,1.48-0.48c0.22,0,0.52,0.48,0.39,0.87
		c-0.87,1.21-2.99,1.91-4.34,1.91c-1.08,0-2.3-0.3-3.12-1.21c-0.3-0.3-0.48-0.52-0.69-0.52c-0.22,0-0.52,0.22-1.17,0.61
		c-0.82,0.52-2.13,1.13-3.69,1.13c-2.95,0-4.43-2.04-4.43-4.21c0-1.56,0.61-3,3.6-4.04c1.52-0.52,3.17-1.13,4.77-1.74
		c0.87-0.3,1-0.69,1-1.13l0.04-1.13c0.09-2.21-0.52-4.12-2.65-4.12c-1.21,0-2.13,0.65-2.3,1.91c-0.09,0.83-0.35,1.26-0.82,1.56
		c-0.61,0.39-1.82,0.78-2.78,0.78c-0.56,0-0.83-0.3-0.83-0.69c0-0.52,0.26-1.43,1.69-2.78c1.34-1.26,4.47-2.73,6.68-2.73
		c3.43,0,5.55,1.61,5.38,5.42L170.22,35.88z M165.97,34.41c0-0.48-0.13-0.74-0.35-0.74c-0.35,0-1.13,0.22-1.91,0.52
		c-1.21,0.43-2.34,1.04-2.34,2.91c0,1.13,0.78,2.52,2.43,2.52c1.56,0,2.04-1.04,2.08-2.08L165.97,34.41z"/>
	<path d="M181.28,41.39c-2.34,0-4.04,0.04-5.25,0.13c-0.22-0.09-0.39-0.3-0.3-0.56c0.74-1,2.69-4.08,3.86-6.16l4.17-7.33
		c0.39-0.65,0.56-1,0.56-1.22c0-0.17-0.39-0.22-0.96-0.22h-2.13c-1.3,0-2.3,0.09-2.91,0.61c-0.69,0.56-1.3,1.82-1.74,2.6
		c-0.35,0.17-0.96,0.13-1.17-0.3c0.26-1.43,0.96-4.38,1.43-5.42c0.17-0.13,0.61-0.13,0.78,0c0.17,0.78,0.65,0.78,2.86,0.78h7.16
		c1.17,0,2-0.04,2.65-0.13c0.22,0.09,0.3,0.26,0.3,0.52c-0.91,1.26-1.95,2.86-3.12,4.9l-4.82,8.42c-0.43,0.74-0.61,1.13-0.61,1.34
		c0,0.22,0.43,0.3,1.69,0.3h1.43c1.48,0,2.73-0.22,3.69-1.04c0.74-0.65,1.3-1.65,1.74-2.6c0.3-0.26,1.04-0.13,1.17,0.22
		c-0.22,1.78-1.04,4.43-1.61,5.29c-1.56-0.09-3-0.13-4.99-0.13H181.28z"/>
	<path d="M199.29,41.39c-2.34,0-4.04,0.04-5.25,0.13c-0.22-0.09-0.39-0.3-0.3-0.56c0.74-1,2.69-4.08,3.86-6.16l4.17-7.33
		c0.39-0.65,0.56-1,0.56-1.22c0-0.17-0.39-0.22-0.96-0.22h-2.13c-1.3,0-2.3,0.09-2.91,0.61c-0.69,0.56-1.3,1.82-1.74,2.6
		c-0.35,0.17-0.96,0.13-1.17-0.3c0.26-1.43,0.95-4.38,1.43-5.42c0.17-0.13,0.61-0.13,0.78,0c0.17,0.78,0.65,0.78,2.86,0.78h7.16
		c1.17,0,2-0.04,2.65-0.13c0.22,0.09,0.3,0.26,0.3,0.52c-0.91,1.26-1.95,2.86-3.12,4.9l-4.82,8.42c-0.43,0.74-0.61,1.13-0.61,1.34
		c0,0.22,0.43,0.3,1.69,0.3h1.43c1.48,0,2.73-0.22,3.69-1.04c0.74-0.65,1.3-1.65,1.74-2.6c0.3-0.26,1.04-0.13,1.17,0.22
		c-0.22,1.78-1.04,4.43-1.61,5.29c-1.56-0.09-3-0.13-4.99-0.13H199.29z"/>
	<path d="M225.55,35.88c-0.13,2.52,0.52,3.82,2.08,3.82c0.74,0,1.35-0.48,1.48-0.48c0.22,0,0.52,0.48,0.39,0.87
		c-0.87,1.21-2.99,1.91-4.34,1.91c-1.08,0-2.3-0.3-3.12-1.21c-0.3-0.3-0.48-0.52-0.69-0.52c-0.22,0-0.52,0.22-1.17,0.61
		c-0.82,0.52-2.13,1.13-3.69,1.13c-2.95,0-4.43-2.04-4.43-4.21c0-1.56,0.61-3,3.6-4.04c1.52-0.52,3.17-1.13,4.77-1.74
		c0.87-0.3,1-0.69,1-1.13l0.04-1.13c0.09-2.21-0.52-4.12-2.65-4.12c-1.21,0-2.13,0.65-2.3,1.91c-0.09,0.83-0.35,1.26-0.82,1.56
		c-0.61,0.39-1.82,0.78-2.78,0.78c-0.56,0-0.83-0.3-0.83-0.69c0-0.52,0.26-1.43,1.69-2.78c1.34-1.26,4.47-2.73,6.68-2.73
		c3.43,0,5.55,1.61,5.38,5.42L225.55,35.88z M221.29,34.41c0-0.48-0.13-0.74-0.35-0.74c-0.35,0-1.13,0.22-1.91,0.52
		c-1.21,0.43-2.34,1.04-2.34,2.91c0,1.13,0.78,2.52,2.43,2.52c1.56,0,2.04-1.04,2.08-2.08L221.29,34.41z"/>
</g>
</svg>
